PathFileType	4	(X/Y/Z)	/Users/niels/Desktop/University/Third Semester/Perception and Action/Exam/Gymnastics Motion Tracking/Code for Gym Tracking/Analyzed Data/Webcam_Backflip/id2_1_trajectory_Sports2D/id2_1_trajectory_Sports2D_px_person00.trc
DataRate	CameraRate	NumFrames	NumMarkers	Units	OrigDataRate	OrigDataStartFrame	OrigNumFrames
29.702970297029704	29.702970297029704	10	22	m	29.702970297029704	0	101
Frame#	Time	Hip			RHip			RKnee			RAnkle			RBigToe			RSmallToe			RHeel			LHip			LKnee			LAnkle			LBigToe			LSmallToe			LHeel			Neck			Head			Nose			RShoulder			RElbow			RWrist			LShoulder			LElbow			LWrist		
		X1	Y1	Z1	X2	Y2	Z2	X3	Y3	Z3	X4	Y4	Z4	X5	Y5	Z5	X6	Y6	Z6	X7	Y7	Z7	X8	Y8	Z8	X9	Y9	Z9	X10	Y10	Z10	X11	Y11	Z11	X12	Y12	Z12	X13	Y13	Z13	X14	Y14	Z14	X15	Y15	Z15	X16	Y16	Z16	X17	Y17	Z17	X18	Y18	Z18	X19	Y19	Z19	X20	Y20	Z20	X21	Y21	Z21	X22	Y22	Z22
0	0.0	0.897723594545719	-0.697774685633642	0.0	0.8977156956876612	-0.6977869856579484	0.0	0.9397511858277512	-0.8089380556117453	0.0	0.9203707422357325	-0.9237631106815345	0.0	0.9605085286398204	-0.9429754398397789	0.0	0.9509274668586967	-0.9448927689745464	0.0	0.906955645433716	-0.9390807431548758	0.0	0.897722331584259	-0.6939543337404965	0.0	0.9378574881173211	-0.8050860523088041	0.0	0.9184864410363813	-0.9199156554962906	0.0	0.9605071829674698	-0.9353047051243402	0.0	0.9567100449753699	-0.9314762480251879	0.0	0.9012354918221036	-0.9313992311007733	0.0	0.894141768270413	-0.5352898032127821	0.0	0.8751254450712985	-0.45497860887338365	0.0	0.9075765706361855	-0.48563020208765206	0.0	0.8998465970494017	-0.5410424625207069	0.0	0.9551616703024198	-0.4797977967981108	0.0	0.947375437704404	-0.4109868887578053	0.0	0.8902817885677311	-0.5371948478454759	0.0	0.9475355811728341	-0.485491256767329	0.0	0.9339976185253069	-0.414811662437747	0.0
1	0.033666666666666664	0.9010511065294775	-0.6544808005939725	0.0	0.9012402610669304	-0.6550697910450776	0.0	0.9529728842142291	-0.7657633044504107	0.0	0.9276503650944177	-0.8829149990373193	0.0	0.9581570581504539	-0.9107405977741594	0.0	0.9494184111912084	-0.9113670045775643	0.0	0.9145184263747819	-0.8984262372770208	0.0	0.8985079147385394	-0.6517508609254178	0.0	0.9479723159993155	-0.7617508616026107	0.0	0.9257613794103894	-0.8786778193312835	0.0	0.9594497614190646	-0.9019402839257682	0.0	0.953687378589503	-0.8991351426113058	0.0	0.9088871125654726	-0.8926750812853338	0.0	0.8698271711381083	-0.5039346093245309	0.0	0.8358249601549076	-0.4300856937992094	0.0	0.8740879247014977	-0.4525619164440128	0.0	0.8745401673608502	-0.5084001654311051	0.0	0.925520068794193	-0.45279911853661775	0.0	0.9097402662047813	-0.38562995714143933	0.0	0.8676984438817883	-0.5057310368486254	0.0	0.9248353504212851	-0.45671238394375735	0.0	0.9103946448704971	-0.3894380761872407	0.0
2	0.06733333333333333	0.9027051256603023	-0.6123846598015165	0.0	0.9028611560045553	-0.6136447321832856	0.0	0.967491487258545	-0.7184207912277578	0.0	0.9373841082246755	-0.8377642958235841	0.0	0.9602938414219878	-0.8733679821167096	0.0	0.9523419340134441	-0.8731365871681549	0.0	0.9243681551764517	-0.853426338652778	0.0	0.8984634121356556	-0.6103135148175866	0.0	0.9598097949356431	-0.7140675113412606	0.0	0.9354968920157715	-0.8332625878867829	0.0	0.9630133910131172	-0.863962537088341	0.0	0.955675032480952	-0.8622137380524207	0.0	0.9187072767190549	-0.8500924276623367	0.0	0.845597766324147	-0.4742753665766688	0.0	0.798116567084785	-0.40718362602237584	0.0	0.841301289776317	-0.42182963987832817	0.0	0.8493400960155638	-0.47763232591823923	0.0	0.8984463972292099	-0.42889557599306916	0.0	0.8786268196540277	-0.36253889530452543	0.0	0.8453358079636685	-0.47596328785871816	0.0	0.9037091154554409	-0.43100014469739667	0.0	0.8917895879242311	-0.36671848794566453	0.0
3	0.10099999999999999	0.9019083706202315	-0.5732323085060109	0.0	0.9018579001491972	-0.5752260325690102	0.0	0.9825929783090477	-0.6643932901766086	0.0	0.950830363084464	-0.7852548441174474	0.0	0.96967778306515	-0.8262132093203062	0.0	0.962535249827387	-0.8258248614213298	0.0	0.9379106182961106	-0.8011203980282863	0.0	0.8972767188793023	-0.5712411128390597	0.0	0.9730844565502651	-0.6597459688035311	0.0	0.9488811857481338	-0.7807817499285177	0.0	0.9737818210836638	-0.8173009009292975	0.0	0.9656361218868809	-0.8165744365580445	0.0	0.932241366709375	-0.8006531857577769	0.0	0.8219843237364881	-0.4482059681177923	0.0	0.7636186653723488	-0.3884034484897074	0.0	0.8102110514280313	-0.39592899341962234	0.0	0.8249487733038953	-0.45073533880803546	0.0	0.8759729134341924	-0.4100961372800621	0.0	0.8585418535061627	-0.3435083459739296	0.0	0.8237910554312705	-0.4498555110053301	0.0	0.8853343654915967	-0.41048877872418543	0.0	0.8809744360922951	-0.3485447121762036	0.0
4	0.13466666666666666	0.8991776100800665	-0.5390062871054825	0.0	0.8990604126056012	-0.5415935482347666	0.0	0.9952796894431459	-0.6035240363595429	0.0	0.967691512613529	-0.7245397094484244	0.0	0.9868661682870699	-0.7663673213396145	0.0	0.9806577384166288	-0.7666186542215867	0.0	0.9554328148446091	-0.7409701584272067	0.0	0.895284275741151	-0.536752105874581	0.0	0.9851288720953162	-0.5992167941398112	0.0	0.9655383592346852	-0.7204942382980652	0.0	0.9917607588814222	-0.7592512793718124	0.0	0.9836927688987881	-0.7594278081802077	0.0	0.9501364582351861	-0.7431400866357193	0.0	0.7998976420893067	-0.4273863049854065	0.0	0.7336326109197991	-0.37554243669039483	0.0	0.7819302948489874	-0.3768305491919274	0.0	0.8026155891059908	-0.42935666712829373	0.0	0.859230563802116	-0.3968096682733878	0.0	0.850871164994051	-0.32952446907090527	0.0	0.8039759922469655	-0.4291873020234613	0.0	0.870260827810486	-0.3957707270461315	0.0	0.8777523297729212	-0.33551022936757374	0.0
5	0.16833333333333333	0.8960397940362776	-0.510730498646389	0.0	0.8962853476254772	-0.5135093960358913	0.0	1.0013604967184853	-0.5380565437362886	0.0	0.9860228186753174	-0.6565288685050715	0.0	1.0095595469044651	-0.6931529718867417	0.0	1.0044264762988988	-0.6947680330578261	0.0	0.97573937159978	-0.6740330855831526	0.0	0.8933538477277128	-0.5082589866831871	0.0	0.9917151929383713	-0.5351171153091626	0.0	0.9835590752644022	-0.6531887784762299	0.0	1.0140024441370705	-0.6886635239055007	0.0	1.0067340162556118	-0.6896036504015779	0.0	0.9714031934684859	-0.677766192545308	0.0	0.7804745538902047	-0.41298761577052134	0.0	0.7090644685519488	-0.36988488482309867	0.0	0.7575592927098614	-0.3656032636998188	0.0	0.7838548929823329	-0.4144051026273706	0.0	0.8482969571219501	-0.38804849189523566	0.0	0.8537630966789023	-0.32047424754713044	0.0	0.7869623766881135	-0.415081592178278	0.0	0.8583745681593861	-0.38600800409026775	0.0	0.8795237026351805	-0.3268057238309667	0.0
6	0.20199999999999999	0.8942233421048127	-0.4877362405382727	0.0	0.8953112266682459	-0.4902077645721096	0.0	0.997309828036716	-0.4723883770822794	0.0	1.002486426989199	-0.5831996875722685	0.0	1.0323291631660436	-0.6083747297877926	0.0	1.028413853382595	-0.6117924184514667	0.0	0.9958374128745658	-0.6018367963226486	0.0	0.8925686983331057	-0.4852775867352971	0.0	0.9888389740318171	-0.4716240956295253	0.0	0.9997370405946159	-0.5805598845232913	0.0	1.034859631542313	-0.6065620131366157	0.0	1.0289516690416982	-0.6080921695343441	0.0	0.9929165087383045	-0.6056921743061445	0.0	0.7649939563735726	-0.40569033856997927	0.0	0.690646416236792	-0.37223393218458517	0.0	0.7381873631740828	-0.3625919536540042	0.0	0.7701251859102636	-0.40604525396018193	0.0	0.8423604547622422	-0.3821779944561704	0.0	0.862934045415746	-0.3151060605546453	0.0	0.7738371705225542	-0.407908317588308	0.0	0.84914464191761	-0.3797159611677097	0.0	0.8827405692223518	-0.3207338946692214	0.0
7	0.23566666666666664	0.8949039536732885	-0.46799594618867896	0.0	0.897094854992863	-0.46977822727244967	0.0	0.9819216444289752	-0.4122391317381184	0.0	1.0128670454779274	-0.5073244257237179	0.0	1.0476605597629045	-0.5164400198784589	0.0	1.0451613009994927	-0.5216381586977434	0.0	1.011104200283943	-0.5261565003726311	0.0	0.893834184163991	-0.4657150789666649	0.0	0.9747218008479129	-0.4138748306645615	0.0	1.0100491316811944	-0.5052753042791577	0.0	1.0473986137701006	-0.5170521574133808	0.0	1.0431890309831953	-0.5187351206410522	0.0	1.0098406791584038	-0.5290460321544543	0.0	0.7548028696569767	-0.40563058062185453	0.0	0.6792428575623999	-0.3829743158177231	0.0	0.7247975031381207	-0.36778808283189435	0.0	0.7624558313671159	-0.4038769338989255	0.0	0.8400683850724431	-0.3777867349067216	0.0	0.8729191017922263	-0.3115378740509987	0.0	0.7657142002249473	-0.4074559360302203	0.0	0.842124399447421	-0.3757745664819098	0.0	0.8842534378942809	-0.31575263707735307	0.0
8	0.2693333333333333	0.8982537374261419	-0.4491470963049804	0.0	0.9014309135262893	-0.4500063204147148	0.0	0.9568391209518646	-0.3630788039603488	0.0	1.0129070010263885	-0.43251049391805074	0.0	1.048250903898314	-0.4239856909366818	0.0	1.0473754465009826	-0.4304873099310489	0.0	1.0163165948713502	-0.449623576579405	0.0	0.8974480968217089	-0.44712288396450894	0.0	0.9507074834838651	-0.3669009809788428	0.0	1.010528615788171	-0.4311241160250045	0.0	1.0454739506387218	-0.4271755199346174	0.0	1.0428414483792683	-0.4280854429886136	0.0	1.0168617579420887	-0.4512134868623836	0.0	0.7511243686935546	-0.4122561130088563	0.0	0.6760367287586684	-0.40193675842435483	0.0	0.718202764964079	-0.38090880432711943	0.0	0.7612308551201745	-0.4070733969852683	0.0	0.8398528996638698	-0.3741865374816499	0.0	0.8785506486443764	-0.3082561490331742	0.0	0.7637074528688922	-0.41300668982592154	0.0	0.8372186777803651	-0.3738546034347446	0.0	0.881853230503637	-0.31138002456217295	0.0
9	0.303	0.9032329240104102	-0.429384348068291	0.0	0.9069373576846756	-0.42917902545019887	0.0	0.9256300733020659	-0.32840624614731107	0.0	0.999340587471575	-0.36317100158595883	0.0	1.0292700403738329	-0.3389903984153641	0.0	1.030027064835183	-0.3460617104132801	0.0	1.0071432599159529	-0.37634867950939876	0.0	0.9026745510136717	-0.4276755363785987	0.0	0.9204083606400126	-0.33404558582625976	0.0	0.9982669601043594	-0.36266312475795887	0.0	1.025357636085866	-0.345279954142417	0.0	1.023741983018176	-0.34417655042969747	0.0	1.0096170962306232	-0.3768975675751343	0.0	0.7548136712523926	-0.42423113176761124	0.0	0.6824820966928462	-0.4279861974010668	0.0	0.7192277183508226	-0.40112975827945035	0.0	0.766365860599778	-0.4144721691889451	0.0	0.8402522921443821	-0.3713852980370695	0.0	0.8763206688072702	-0.30504090405110723	0.0	0.7686279087232357	-0.42321060434136365	0.0	0.8344627672122802	-0.373911874946191	0.0	0.8742100576549706	-0.30832118498842437	0.0
